<svg width="20" height="12" viewBox="0 0 20 12" fill="none" xmlns="http://www.w3.org/2000/svg">
<path d="M14.0802 0.000110149C17.3495 0.000110149 20 2.6506 20 5.92002C20 9.18922 17.3495 11.8397 14.0802 11.8396C12.6614 11.8396 11.3705 11.343 10.351 10.5109C11.1287 9.76012 11.7224 8.81992 12.0409 7.75732H11.5491C11.2408 8.70222 10.6994 9.53562 9.99552 10.2046C9.28702 9.52992 8.75672 8.69002 8.45202 7.76032H7.9601C8.27722 8.81692 8.86082 9.75822 9.63252 10.5068C8.61542 11.3305 7.33056 11.8397 5.91992 11.8397C2.65048 11.8397 0 9.18922 0 5.91992C0 2.65048 2.65059 0 5.91992 0C7.33068 0 8.61542 0.50925 9.63252 1.33292C8.84992 2.09089 8.27422 3.03639 7.9601 4.07952H8.45202C8.75662 3.14976 9.28692 2.30993 9.99552 1.63517C10.6993 2.30408 11.2408 3.13766 11.5491 4.08242H12.0409C11.7224 3.01976 11.1287 2.07967 10.351 1.32883C11.3705 0.49662 12.6614 0.000110149 14.0802 0.000110149ZM16.058 5.11632L15.6492 7.30672H16.251L16.4361 6.30402C16.6045 5.68152 16.8634 5.68472 17.0147 5.68662C17.0227 5.68672 17.0304 5.68682 17.0378 5.68682L17.1996 5.11632C16.8988 5.11632 16.7214 5.22402 16.6288 5.33212L16.5748 5.11632H16.058ZM8.32392 4.55962H7.72829L7.31589 6.63662C7.20118 7.23212 7.65182 7.31632 7.78917 7.31632C7.92676 7.31632 8.10232 7.29322 8.23222 7.20922L8.27042 6.76642C7.92676 6.81992 7.91139 6.66712 7.94201 6.49902L8.11012 5.61332H8.41552L8.52222 5.13992H8.20172L8.32392 4.55962ZM9.49242 5.10942C8.55942 5.10942 8.41622 6.00662 8.38752 6.18642C8.38662 6.19212 8.38582 6.19702 8.38512 6.20122C8.36222 6.33882 8.34702 7.30852 9.37782 7.30852C9.62982 7.31622 9.99642 7.28562 10.1416 7.20912L10.2332 6.75882C10.1416 6.78152 9.79782 6.81222 9.56102 6.81222C9.55742 6.81222 9.55382 6.81222 9.55022 6.81222H9.54032C9.30292 6.81272 8.94462 6.81332 9.01122 6.33122H10.3093C10.3781 5.97982 10.5385 5.10942 9.49242 5.10942ZM7.30075 5.18572C7.05393 5.09232 6.85382 5.09812 6.75109 5.10102C6.73622 5.10142 6.72339 5.10182 6.71275 5.10182H6.70869C6.60801 5.10172 5.91207 5.10072 5.80407 5.62112C5.72009 6.02582 5.86825 6.19322 6.01027 6.25482C6.16007 6.31972 6.26744 6.38142 6.35797 6.43332C6.40594 6.46092 6.4492 6.48572 6.49153 6.50692C6.64265 6.58242 6.61489 6.83522 6.41506 6.83522C6.39927 6.83522 6.37444 6.83652 6.34264 6.83832C6.1896 6.84662 5.87509 6.86382 5.62859 6.78162L5.54461 7.23212C5.81955 7.30862 6.04077 7.30862 6.2472 7.30862C6.25374 7.30862 6.26142 7.30872 6.27015 7.30882C6.45497 7.31062 7.10687 7.31722 7.20152 6.69002C7.25 6.36972 7.10991 6.22412 6.99531 6.15572C6.88083 6.07922 6.68988 5.97242 6.56777 5.91882C6.44555 5.86542 6.35394 5.65932 6.5754 5.59822C6.71275 5.58282 6.9952 5.58282 7.16339 5.62872L7.30075 5.18572ZM3.79575 4.66642H2.81845L2.09287 6.27012L1.97827 4.66642H1.02384L0.5122 7.30852H1.10771L1.47426 5.39952L1.63471 7.30852H2.19973L3.03216 5.44542L2.68087 7.30852H3.29948L3.79575 4.66642ZM3.86437 5.65162C3.8998 5.64792 3.94978 5.64142 4.00808 5.63392C4.18871 5.61072 4.44932 5.57722 4.60509 5.58282C4.62482 5.58362 4.64477 5.58392 4.66464 5.58432C4.85249 5.58792 5.03379 5.59142 4.97163 5.88832C4.95203 5.89022 4.91732 5.88922 4.87136 5.88782C4.55928 5.87832 3.72834 5.85322 3.58204 6.65172C3.5133 7.10252 3.90261 7.33152 4.20804 7.31632C4.51348 7.30102 4.59746 7.26272 4.70443 7.18632L4.78079 7.30852H5.33806L5.57488 6.11732C5.63599 5.81952 5.73511 5.10172 4.73493 5.10172C4.704 5.10302 4.67242 5.10392 4.63941 5.10482C4.47692 5.10922 4.27978 5.11462 3.95598 5.17822L3.86437 5.65162ZM13.1499 5.17042C13.3486 5.17042 13.4552 5.18562 13.6081 5.27732L13.9977 4.88802C13.845 4.71992 13.6691 4.55492 13.1806 4.53672C12.7683 4.52142 12.0617 4.82232 11.8365 5.64382C11.5311 6.75882 12.2029 7.30852 12.8216 7.30852C13.1499 7.30852 13.3486 7.26272 13.547 7.17112L13.3714 6.63662C12.7604 6.84262 12.3253 6.52962 12.4246 5.89592C12.5084 5.36012 12.9514 5.17042 13.1499 5.17042ZM18.6017 5.28972C18.5215 5.20572 18.4297 5.10942 18.2203 5.10942C18.2027 5.10942 18.1847 5.10932 18.1662 5.10912C17.8379 5.10592 17.3648 5.10132 17.0903 6.04102C16.8962 6.70442 17.2887 7.30862 17.7162 7.30862C17.9148 7.30112 18.1133 7.21702 18.2353 7.13302L18.312 7.30862H18.9533L19.4726 4.52922H18.8463L18.6862 5.36892C18.6564 5.34712 18.6298 5.31922 18.6017 5.28972ZM13.944 5.65162C13.9795 5.64792 14.0296 5.64142 14.088 5.63392C14.2686 5.61062 14.5289 5.57722 14.6848 5.58282C14.7045 5.58362 14.7244 5.58392 14.7443 5.58432C14.9321 5.58792 15.1136 5.59142 15.0513 5.88832C15.0317 5.89022 14.997 5.88922 14.9511 5.88782C14.6391 5.87832 13.808 5.85322 13.6617 6.65172C13.5929 7.10252 13.9822 7.33152 14.2876 7.31632C14.5933 7.30102 14.677 7.26272 14.7841 7.18632L14.8606 7.30852H15.4178L15.6547 6.11732C15.7158 5.81952 15.8149 5.10172 14.8145 5.10172C14.7836 5.10302 14.752 5.10392 14.7189 5.10482C14.5565 5.10922 14.3594 5.11462 14.0358 5.17822L13.944 5.65162ZM10.7312 5.13992L10.3264 7.30852L10.9221 7.30862L11.1052 6.31572C11.2705 5.70512 11.5307 5.70972 11.6815 5.71232C11.691 5.71252 11.7 5.71272 11.7085 5.71272L11.8612 5.13992C11.5636 5.13992 11.388 5.24682 11.2962 5.35382L11.2428 5.13992H10.7312Z" fill="currentColor"/>
</svg>
