<svg width="20" height="7" viewBox="0 0 20 7" fill="none" xmlns="http://www.w3.org/2000/svg">
<path d="M13.0267 0C11.6066 0 10.3376 0.736049 10.3376 2.09593C10.3376 3.65553 12.5883 3.76323 12.5883 4.54673C12.5883 4.87663 12.2102 5.17193 11.5645 5.17193C10.6482 5.17193 9.9633 4.75933 9.9633 4.75933L9.6702 6.13163C9.6702 6.13163 10.4592 6.48013 11.5067 6.48013C13.0593 6.48013 14.281 5.70793 14.281 4.32483C14.281 2.67683 12.021 2.57233 12.021 1.84513C12.021 1.58663 12.3313 1.30353 12.9752 1.30353C13.7016 1.30353 14.2943 1.60363 14.2943 1.60363L14.5811 0.27821C14.5811 0.27821 13.9362 0 13.0267 0ZM0.03439 0.100039L0 0.300099C0 0.300099 0.59744 0.40943 1.13552 0.62754C1.82833 0.87763 1.8777 1.02324 1.99437 1.47543L3.26585 6.37703H4.97031L7.59614 0.100039H5.8956L4.20835 4.36773L3.51986 0.75023C3.45672 0.33621 3.13688 0.100039 2.74539 0.100039H0.03439ZM8.2799 0.100039L6.94593 6.37693H8.5675L9.8969 0.100019L8.2799 0.100039ZM17.3242 0.100039C16.9331 0.100039 16.726 0.30939 16.5739 0.67521L14.1982 6.37693H15.8987L16.2277 5.42663H18.2995L18.4995 6.37693H20L18.691 0.100039H17.3242ZM17.5453 1.79583L18.0494 4.15133H16.699L17.5453 1.79583Z" fill="currentColor"/>
</svg>
